<svg xmlns="http://www.w3.org/2000/svg" width="260.073" height="33.771" viewBox="0 0 260.073 33.771">
  <g id="Grupo_79" data-name="Grupo 79" transform="translate(-22.207 -18.106)">
    <path id="Trazado_174" data-name="Trazado 174" d="M1085.054,54.427h-4.5l-3.2-9.752H1063.14l-3.2,9.752h-4.5l10.349-31.552h8.919Zm-9.1-14.03-5.7-17.391-5.7,17.391Z" transform="translate(-802.774 -3.705)"/>
    <path id="Trazado_175" data-name="Trazado 175" d="M802.834,18.106A16.885,16.885,0,1,0,819.72,34.991,16.885,16.885,0,0,0,802.834,18.106Zm0,29.266a12.381,12.381,0,1,1,12.381-12.381A12.381,12.381,0,0,1,802.834,47.372Z" transform="translate(-593.393 0)"/>
    <path id="Trazado_176" data-name="Trazado 176" d="M501.518,18.106A16.885,16.885,0,1,0,518.4,34.991,16.885,16.885,0,0,0,501.518,18.106Zm0,31.633a14.748,14.748,0,1,1,14.747-14.748A14.748,14.748,0,0,1,501.518,49.739Z" transform="translate(-359.284 0)"/>
    <path id="Trazado_177" data-name="Trazado 177" d="M177.763,18.106a16.885,16.885,0,1,0,16.885,16.885A16.885,16.885,0,0,0,177.763,18.106Zm0,31.633a14.748,14.748,0,1,1,14.747-14.748A14.748,14.748,0,0,1,177.763,49.739Z" transform="translate(-107.741 0)"/>
    <path id="Trazado_178" data-name="Trazado 178" d="M50.3,38.9A15.777,15.777,0,0,1,34.539,54.657H22.207V23.142H34.539A15.777,15.777,0,0,1,50.3,38.9Zm-2.139,0a13.635,13.635,0,0,0-13.62-13.618H24.346V52.517H34.539A13.635,13.635,0,0,0,48.159,38.9Z" transform="translate(0 -3.913)"/>
    <rect id="Rectángulo_654" data-name="Rectángulo 654" width="2.139" height="31.521" transform="translate(90.203 19.157)"/>
    <rect id="Rectángulo_655" data-name="Rectángulo 655" width="4.309" height="31.572" transform="translate(163.357 19.102)"/>
    <rect id="Rectángulo_656" data-name="Rectángulo 656" width="4.309" height="31.572" transform="translate(185.206 19.102)"/>
    <rect id="Rectángulo_657" data-name="Rectángulo 657" width="2.139" height="31.521" transform="translate(120.373 19.157)"/>
    <path id="Trazado_179" data-name="Trazado 179" d="M338.824,22.82h-2.245l11.792,31.557h2.244Z" transform="translate(-244.253 -3.662)"/>
    <path id="Trazado_180" data-name="Trazado 180" d="M678.573,22.57h-4.491l13.105,31.624h4.5Z" transform="translate(-506.478 -3.468)"/>
    <path id="Trazado_181" data-name="Trazado 181" d="M941.861,22.962h-4.5l10.372,31.544h4.5Z" transform="translate(-711.031 -3.773)"/>
    <path id="Trazado_182" data-name="Trazado 182" d="M1008.515,54.506h-4.5l10.364-31.544h4.5Z" transform="translate(-762.824 -3.773)"/>
    <path id="Trazado_183" data-name="Trazado 183" d="M411.173,22.82h2.243L401.626,54.377h-2.249Z" transform="translate(-293.044 -3.662)"/>
  </g>
</svg>
